<?xml version="1.0" encoding="utf-8"?>
<!-- Generator: Adobe Illustrator 26.0.2, SVG Export Plug-In . SVG Version: 6.00 Build 0)  -->
<svg version="1.1" id="Layer_1" xmlns="http://www.w3.org/2000/svg" xmlns:xlink="http://www.w3.org/1999/xlink" x="0px" y="0px"
	 viewBox="0 0 352 196" style="enable-background:new 0 0 352 196;" xml:space="preserve">
<style type="text/css">
	.st0{fill:#C9B88C;}
	.st1{fill:#FDF289;}
</style>
<path class="st0" d="M326.93,147.46c2.79-2.35,4.54-5.91,4.59-10.03c0.05-3.98-1.47-7.49-4.01-9.95c4.59-2.21,7.57-6.95,7.43-12.56
	c-0.16-6.77-4.98-11.98-11.42-12.65c2.95-3.97,4.74-8.79,5.09-13.53c0.6-8.17-2.72-14.52-6.46-19.78c3.25-1.89,5.62-5.06,6.21-8.79
	c0.99-6.25-0.72-12.5-4.69-17.15c-3.71-4.34-8.93-6.74-14.7-6.74l-0.17,0c-5.49,0.05-10.62,2.37-14.47,6.53
	c-2.23-1.63-5.01-2.58-8.1-2.58c-3.64,0-7.13,1.43-9.58,3.92c-0.76,0.77-1.4,1.63-1.93,2.55c-1.51-1.38-3.34-2.4-5.3-3.01
	c0-0.14,0.02-0.28,0.02-0.42c0-3.29-1.14-6.44-3.21-8.85c-2.47-2.87-5.99-4.45-9.92-4.45h-17.58c-2.11,0-4.07,0.49-5.82,1.35
	c-0.01-0.01-0.02-0.02-0.03-0.03c-3.9-3.86-9.43-6.08-15.17-6.08c-1.67,0-3.32,0.19-4.9,0.57c-4.09,0.98-7.66,3.11-10.36,6.13
	c-2.25-1.64-5.05-2.6-8.12-2.6c-3.69,0-7.2,1.46-9.62,4.01c-0.01,0.01-0.01,0.02-0.02,0.02c-2.38-2.05-5.53-3.21-8.81-3.21
	c-6.45,0-11.61,4.14-13.02,10.01c-3.07-2.78-6.99-4.64-11.6-4.75c-0.16,0-0.32-0.01-0.48-0.01c-5.65,0-9.87,2.38-13.02,5.72
	c-2.21-4.32-6.7-7.18-12.04-7.18c-3.64,0-7.11,1.43-9.54,3.91c-2.38-2.2-5.61-3.52-9.26-3.52c-3.64,0-7.14,1.43-9.58,3.92
	c-0.26,0.27-0.5,0.55-0.74,0.83c-0.47-1.84-0.95-3.78-1.35-5.68c-0.12-0.57-0.23-1.13-0.34-1.7c-0.22-7.24-6.19-12.88-13.66-12.88
	c-6.23,0-11.29,4.08-12.58,10.16C65,46.16,61.7,63.6,58.8,81c-1.96-1.36-4.3-2.58-7.1-3.61c-5.59-2.04-12.58-3.08-20.76-3.08
	c-1.73,0-3.54,0.05-5.36,0.14c-7.22,0.37-12.76,6.03-12.88,13.16c-0.06,3.81-0.13,7.61-0.2,11.42c-0.4,21.65-0.81,44.05,0.04,66.13
	c0.28,7.3,6.08,12.81,13.49,12.81c3.67,0,7.17-1.45,9.61-3.98c0.07-0.07,0.12-0.15,0.19-0.22c4.25,3.64,9.68,3.69,13.1,3.73
	c0.64,0.01,1.24,0.01,1.7,0.04l2.73,0.16c2.88,0.17,5.87,0.35,8.84,0.48c0.2,0.01,0.4,0.01,0.6,0.01c5.6,0,10.18-3.35,12.01-8.29
	c0.56,0.07,1.13,0.12,1.7,0.12c4.71,0,8.77-2.3,11.13-5.84c2.62,2.47,5.92,3.85,9.35,3.85c0,0,0,0,0,0c1.83,0,3.66-0.41,5.37-1.18
	c0.46,7,6.04,12.36,13.09,12.36c5.17,0,9.55-2.89,11.7-7.19c2.39,3.41,6.5,5.6,11.14,5.6c4.2,0,7.92-1.82,10.27-4.88
	c2.35,2.85,5.89,4.53,9.8,4.53c0,0,0,0,0,0c6.22,0,11.64-4.03,13.18-9.8c0.36-1.34,0.71-2.7,1.06-4.04
	c1.29,5.94,6.53,10.27,12.99,10.27c0,0,0,0,0,0c1.39,0,2.74-0.21,4.03-0.6c0.47,0.79,1.01,1.53,1.65,2.21
	c2.42,2.56,5.93,4.02,9.63,4.02c3.91,0,7.39-1.54,9.84-4.08c2.4,2.11,5.63,3.38,9.15,3.38c0,0,0,0,0,0c5.22,0,9.72-2.82,11.73-7.37
	c0.33-0.75,0.62-1.49,0.88-2.23c2.37,4.01,6.77,6.64,11.83,6.64c3.73,0,7.26-1.49,9.66-4.09c0.2-0.22,0.39-0.44,0.57-0.67
	c0.47,0.58,0.94,1.15,1.41,1.73c2.5,3.04,5.94,4.72,9.67,4.72c0,0,0,0,0,0c5.02,0,9.74-3.11,12.01-7.93
	c0.39-0.82,0.68-1.67,0.9-2.52l12.47,0.47c0.18,0.01,0.36,0.01,0.54,0.01c0,0,0,0,0,0c1.11,0,2.18-0.15,3.2-0.39
	c0.31,0.54,0.65,1.07,1.05,1.59c4.29,5.55,10.71,5.55,12.82,5.55h0c0.87,0,1.69-0.04,2.42-0.07c0.46-0.02,0.91-0.04,1.34-0.05
	l3.44-0.04c2.88-0.04,5.77-0.07,8.65-0.11c7.35-0.11,13.07-6.03,13.01-13.48C337.45,153.75,333.05,148.57,326.93,147.46z
	 M154.28,68.86c0.09,0.01,0.17,0.02,0.26,0.04c-0.09,0.01-0.19,0.02-0.27,0.03C154.27,68.91,154.28,68.89,154.28,68.86z"/>
<g>
	<path class="st1" d="M115.45,160.88c-6.46,0-6.47,10.04,0,10.04C121.91,170.92,121.92,160.88,115.45,160.88z"/>
	<path class="st1" d="M60.02,96.78c-2.58-13.94-23.11-14.61-34.01-14.05c-2.74,0.14-4.97,2.19-5.02,5.02
		c-0.43,25.66-1.16,51.44-0.17,77.09c0.25,6.44,10.29,6.47,10.04,0c-0.66-17.19-0.55-34.44-0.28-51.67
		C41.14,113.28,62.79,111.76,60.02,96.78z M30.94,92.67c2.99,0.04,5.96,0.27,8.91,0.8c3.04,0.54,8.34,1.14,9.99,4.22
		c1.73,3.23-4.35,3.77-6.33,4.2c-4.21,0.92-8.46,1.26-12.76,1.24C30.81,99.65,30.87,96.16,30.94,92.67z"/>
	<path class="st1" d="M62.55,159.87c-2.85-0.12-5.7-0.28-8.55-0.46c-1.59-0.1-3.32-0.04-5.01-0.11c-0.01-0.79-0.03-1.58-0.04-2.36
		c-0.04-2.17-0.07-4.33-0.1-6.5c-0.01-0.52-0.01-1.03-0.02-1.55c2.28-0.22,4.56-0.45,6.84-0.67c2.7-0.27,5.02-2.12,5.02-5.02
		c0-2.51-2.3-5.29-5.02-5.02c-2.33,0.23-4.66,0.46-6.98,0.69c-0.01-0.35-0.01-0.69-0.01-1.04c-0.03-2.17-0.07-4.33-0.1-6.5
		c-0.02-0.9-0.03-1.8-0.05-2.7c0-0.01,0-0.02,0-0.04c0.09-0.02,0.17-0.03,0.26-0.04c1.09-0.14,2.19-0.27,3.28-0.39
		c2.41-0.26,4.82-0.46,7.24-0.63c6.41-0.44,6.46-10.48,0-10.04c-3.96,0.27-7.89,0.67-11.83,1.19c-3.26,0.43-6.71,0.54-8.32,3.9
		c-1.55,3.24-0.63,7.88-0.58,11.37c0.06,3.81,0.11,7.62,0.17,11.43c0.05,3.63,0.1,7.26,0.17,10.89c0.06,3.33-0.63,7.72,1.61,10.48
		c2.41,2.98,7.18,2.32,10.6,2.52c3.81,0.22,7.62,0.47,11.44,0.63C69,170.17,68.99,160.14,62.55,159.87z"/>
	<path class="st1" d="M90,138.72c-0.82-0.91-1.64-1.81-2.49-2.68c6.81-3.57,13.67-7.28,13.26-16.35
		c-0.52-11.59-14.25-12.67-22.91-14.38c-3.16-0.62-6.35,1.39-6.35,4.84c-0.01,15.58-0.01,31.16-0.02,46.74
		c0,6.46,10.03,6.47,10.04,0c0-4.33,0-8.66,0.01-12.98c1.3,1.5,2.5,3.17,3.17,3.94c2.71,3.06,5.33,6.2,7.82,9.43
		c1.67,2.16,4.29,3.26,6.87,1.8c2.12-1.21,3.45-4.72,1.8-6.87C97.62,147.58,93.93,143.05,90,138.72z M84.52,126.62
		c-0.99,0.5-1.99,0.97-2.98,1.44c0-3.95,0-7.9,0.01-11.84c1.27,0.25,2.53,0.51,3.79,0.8c1.98,0.45,5.45,0.97,5.4,3.57
		C90.68,123.59,86.76,125.49,84.52,126.62z"/>
	<path class="st1" d="M108.81,102.35c0.63,15.87,1.03,31.75,1.2,47.63c0.07,6.45,10.11,6.47,10.04,0
		c-0.17-15.88-0.57-31.76-1.2-47.63C118.59,95.91,108.55,95.88,108.81,102.35z"/>
	<path class="st1" d="M165.47,110.31c-2.23,12.62-4.86,25.17-7.87,37.62c-1.57-4.52-2.94-9.12-4.12-13.77
		c-1.24-4.89-8.32-4.66-9.68,0c-1.09,3.73-2.27,7.44-3.54,11.11c-1.6-11.13-3.09-22.28-4.93-33.37c-1.05-6.36-10.72-3.66-9.68,2.67
		c2.81,17,4.82,34.12,7.63,51.13c0.67,4.09,7.48,5.05,9.17,1.2c2.15-4.89,4.16-9.84,6-14.84c1.76,4.9,3.73,9.73,5.92,14.47
		c1.86,4.04,8.13,2.71,9.17-1.2c4.62-17.28,8.49-34.73,11.61-52.34C176.27,106.66,166.6,103.95,165.47,110.31z"/>
	<path class="st1" d="M180.58,119.38c0,13.72,0,27.45,0,41.17c0,6.46,10.04,6.47,10.04,0c0-13.72,0-27.45,0-41.17
		C190.62,112.92,180.58,112.91,180.58,119.38z"/>
	<path class="st1" d="M184.79,104.21c6.46,0,6.47-10.04,0-10.04C178.33,94.18,178.32,104.21,184.79,104.21z"/>
	<path class="st1" d="M222.56,105.26c-1.61,9.79-2.98,19.61-4.07,29.47c-0.07,0.63-0.13,1.27-0.2,1.9
		c-2.82-8.37-6.26-16.56-9.45-24.79c-2.01-5.18-9.54-4.57-9.86,1.33c-0.94,17.67-1.88,35.34-2.83,53.01
		c-0.34,6.45,9.69,6.44,10.04,0c0.52-9.8,1.04-19.6,1.57-29.39c0.42,1.19,0.83,2.38,1.22,3.57c2.82,8.57,4.39,17.45,5.91,26.32
		c0.7,4.08,7.46,5.06,9.17,1.2c1.89-4.28,2.3-8.54,2.64-13.16c0.39-5.3,0.85-10.59,1.39-15.87c1.06-10.35,2.46-20.67,4.15-30.94
		C233.28,101.61,223.61,98.89,222.56,105.26z"/>
	<path class="st1" d="M257.07,143.58c-1.86-2.76-3.51-5.46-5.66-7.51c4.19-5.48,8.38-10.95,12.57-16.43c1.66-2.17,0.32-5.6-1.8-6.87
		c-2.57-1.54-5.23-0.34-6.87,1.8c-2.98,3.9-5.97,7.8-8.95,11.7c-0.23-3.5-0.46-7.01-0.68-10.51c-0.4-6.41-10.44-6.46-10.04,0
		c0.98,15.61,2.08,31.2,3.3,46.79c0.5,6.4,10.54,6.45,10.04,0c-0.38-4.9-0.75-9.81-1.11-14.71c1.38,2.07,2.78,4.13,4.23,6.15
		c3.27,4.58,6.72,9.03,10.3,13.37c4.11,4.99,11.17-2.14,7.1-7.1C265.09,154.91,260.94,149.35,257.07,143.58z"/>
	<path class="st1" d="M291.36,149.05c-2.75-0.1-5.51-0.21-8.26-0.31c-0.33-14.49-0.66-28.99-1-43.48c-0.15-6.45-10.18-6.47-10.04,0
		c0.37,16.11,0.74,32.21,1.11,48.32c0.06,2.79,2.25,4.91,5.02,5.02c4.39,0.16,8.78,0.33,13.17,0.49
		C297.82,159.32,297.81,149.29,291.36,149.05z"/>
	<path class="st1" d="M324.37,155.53c-3.03,0.04-6.06,0.08-9.1,0.12c-1.47,0.02-2.94,0.04-4.41,0.06c0-2.47,0.32-5.1,0.33-7.31
		c0-2.14,0.01-4.28,0.01-6.42c2.4,0.06,4.79,0.13,7.19,0.18c6.46,0.16,6.46-9.88,0-10.04c-2.39-0.06-4.78-0.12-7.17-0.18
		c0-1.09,0-2.19,0.01-3.28c0-2.44-0.3-5.2-0.26-7.79c1.29-0.04,2.58-0.07,3.87-0.11c2.33-0.06,4.66-0.11,6.99-0.22
		c6.43-0.31,6.47-10.35,0-10.04c-2.64,0.13-5.28,0.18-7.92,0.25c-2.59,0.07-5.74-0.25-8.24,0.51c-4.81,1.46-4.46,6.28-4.46,10.35
		c-0.01,4.93-0.02,9.87-0.02,14.8c-0.01,4.7-0.01,9.4-0.02,14.1c-0.01,3.73-1.19,9.85,1.24,13c2.32,3.01,6.56,2.26,9.9,2.22
		c4.02-0.05,8.05-0.1,12.07-0.16C330.82,165.47,330.84,155.44,324.37,155.53z M308.86,120.92
		C308.51,121.15,308.22,120.88,308.86,120.92L308.86,120.92z"/>
	<path class="st1" d="M93.44,59.35c-1.63-5.96-3.28-11.92-4.81-17.92c-0.53-2.09-1.06-4.19-1.51-6.31
		c-0.17-0.82-0.33-1.64-0.48-2.46c-0.02-0.21-0.03-0.42-0.03-0.63c-0.09-5.48-8.64-7.03-9.86-1.33
		c-4.47,21.01-8.36,42.13-11.69,63.34c-0.42,2.7,0.69,5.36,3.5,6.17c2.38,0.68,5.75-0.83,6.17-3.5c0.76-4.83,1.55-9.66,2.36-14.48
		c4.03,0.06,8.06-0.08,12.08-0.43c1.33,5.13,2.54,10.28,3.49,15.47c1.16,6.34,10.83,3.66,9.68-2.67
		C100.19,82.71,96.63,71.01,93.44,59.35z M78.85,72.21c1-5.59,2.04-11.18,3.11-16.76c0.52,1.9,1.04,3.81,1.56,5.71
		c0.98,3.6,2,7.2,3.01,10.8C83.98,72.13,81.42,72.21,78.85,72.21z"/>
	<path class="st1" d="M130.93,47.05c-0.26-6.44-10.3-6.47-10.04,0c0.24,5.94,0.11,11.87-0.39,17.8c-0.19,2.29-0.04,11.88-3.57,12.09
		c-3.86,0.24-3.81-9.58-4-11.81c-0.5-5.88-0.78-11.78-0.9-17.68c-0.13-6.45-10.16-6.47-10.04,0c0.17,8.29,0.5,16.69,1.66,24.91
		c0.99,7.02,5.25,14.62,13.29,14.6c7.72-0.02,11.73-7.36,12.72-14.07C130.91,64.36,131.28,55.65,130.93,47.05z"/>
	<path class="st1" d="M146.82,106c5.32,1.52,10.85-0.22,14.68-4.14c4.48-4.59,5.92-11.1,6.35-17.3c0.22-3.2-0.58-6.28-3.93-7.45
		c-2.86-1-6.54-0.09-9.5,0.11c-6.41,0.45-6.46,10.49,0,10.04c0.78-0.05,1.97-0.22,3.15-0.36c0,0,0,0,0,0
		c-0.24,1.58-0.58,3.26-1.19,4.75c-0.88,2.12-2.62,4.6-5.1,4.88c-6.04,0.67-5.92-9.14-6.15-12.96c-0.41-6.75,0.19-13.5,1.88-20.06
		c0.8-3.09,1.68-6.32,3.29-9.09c0.07-0.11,0.35-0.37,0.48-0.55c0.85,0.66,1.09,2.29,1.26,3.23c1.14,6.35,10.81,3.66,9.68-2.67
		c-0.94-5.23-4.93-10.6-10.68-10.75c-6.57-0.17-9.87,5.74-11.83,11.1c-4.49,12.29-5.43,26.12-2.82,38.92
		C137.55,99.44,140.97,104.32,146.82,106z"/>
	<path class="st1" d="M199.59,42.43c-0.33-6.43-10.36-6.47-10.04,0c0.31,6.02,0.37,12.05,0.12,18.08
		c-0.09,2.15,0.39,14.56-3.61,14.37c-3.37-0.16-3.81-11.11-4.12-13.27c-0.86-6.08-1.32-12.2-1.18-18.34c0.14-6.46-9.89-6.46-10.04,0
		c-0.19,8.64,0.88,17.22,2.26,25.73c1.17,7.16,4.3,15.93,13.05,15.93c8.55,0,12.28-8.39,13.07-15.65
		C200.09,60.4,200.04,51.34,199.59,42.43z"/>
	<path class="st1" d="M217.22,94.78c10.81-0.66,13.91-11.92,12.34-21c-0.84-4.81-3.07-9-6.08-12.79c-2.45-3.09-5.51-5.89-7.1-9.57
		c-0.77-1.77-1.98-5.07-0.71-6.89c0.84-1.2,2.87-1.38,3.99-0.45c1.33,1.11,0.92,3.51,0.87,5.05c-0.21,6.46,9.83,6.45,10.04,0
		c0.14-4.27-0.33-8.8-3.53-11.96c-3.12-3.08-8.08-4.35-12.32-3.34c-8.31,1.99-10.82,10.74-8.74,18.15c1.03,3.69,2.92,6.95,5.26,9.94
		c2.79,3.55,6.26,6.7,7.79,11.06c0.99,2.83,2.19,9.3-0.89,11.29c-2.79,1.8-5.15-1.14-4.42-3.84c1.71-6.24-7.97-8.9-9.68-2.67
		C201.71,86.35,208.07,95.35,217.22,94.78z"/>
	<path class="st1" d="M242,48.3c0,16.09,0,32.17,0,48.26c0,6.46,10.04,6.47,10.04,0c0-16.09,0-32.17,0-48.26c1.42,0,2.85,0,4.27,0
		c6.46,0,6.47-10.04,0-10.04c-5.86,0-11.72,0-17.58,0c-6.46,0-6.47,10.04,0,10.04C239.81,48.3,240.9,48.3,242,48.3z"/>
	<path class="st1" d="M275.45,93.16c7.99,0.54,13.74-5.73,15.15-13.17c1.62-8.56,0.88-17.94,0.73-26.62
		c-0.11-6.45-10.14-6.47-10.04,0c0.1,6,0.1,12-0.05,18c-0.09,3.6,0.36,11.41-4.75,11.79c-5.1,0.38-6.08-5.26-6.71-9.05
		c-0.91-5.48-0.44-11.11,0.79-16.5c1.43-6.29-8.24-8.97-9.68-2.67C257.97,67.82,257.35,91.94,275.45,93.16z"/>
	<path class="st1" d="M320.34,88.14c0.63-8.51-5.13-14.6-9.92-20.87c-2.07-2.7-5.18-7.05-3.65-10.66c0.59-1.39,4.16-3.17,3.72-0.41
		c-0.43,2.7,0.69,5.37,3.5,6.17c2.38,0.68,5.75-0.83,6.17-3.5c1.14-7.15-3.55-14.37-11.31-14.3c-7.88,0.07-12.98,8.06-12.37,15.32
		c0.71,8.47,6.98,13.63,11.33,20.29c2.1,3.22,3.77,7.43,1.27,10.95c-0.64,0.9-4.65,2.99-4,0.61c1.7-6.24-7.97-8.9-9.68-2.67
		c-1.92,7.02,3.79,14.03,11.04,13.92C314.31,102.88,319.8,95.46,320.34,88.14z"/>
</g>
</svg>
